<svg xmlns="http://www.w3.org/2000/svg" viewBox="0 0 389.33 183.67"><defs><style>.cls-1{isolation:isolate;}.cls-2{mix-blend-mode:color-dodge;}.cls-3{fill:#fff;}</style></defs><g class="cls-1"><g id="Layer_1" data-name="Layer 1"><g class="cls-2"><path class="cls-3" d="M194.9,19.6c7-.85,13.47,1,19.7,3.85,2.77,1.28,3.65,3.05,3.23,5.81-.22,1.38-3.09,4.08-4.81,4a15.68,15.68,0,0,1-4.5-1.38,37.21,37.21,0,0,0-20.1-2,33.66,33.66,0,0,0-17.57,8.43,45.07,45.07,0,0,0-7.8,10.41,32.88,32.88,0,0,0-4.23,15.61,35.19,35.19,0,0,0,3.57,16.23c5.51,11.63,14.72,18.32,27.42,20.17,10.55,1.54,19.79-1.45,28.05-8.09a33.94,33.94,0,0,0,12.6-23.18c1.26-10.71-1.61-20.61-9.26-28.54a5.56,5.56,0,0,1,2.47-9.36,4.57,4.57,0,0,1,3.74.95,46.13,46.13,0,0,1,12.93,23,43.11,43.11,0,0,1-1.53,24.92A44.88,44.88,0,0,1,225.24,99.9a47.23,47.23,0,0,1-19,10,45.72,45.72,0,0,1-28.07-1.7C165.09,103,156.06,93.71,151,80.72a43.39,43.39,0,0,1,0-31.4,46.24,46.24,0,0,1,14.24-19.59A45.56,45.56,0,0,1,181.73,21c4.21-1.23,8.73-1.38,13.11-2Z"/><path class="cls-3" d="M365.19,78.61H326.14v22.94c0,2.65-.37,3-3.09,3-1.32,0-2.65-.07-4,0-1.85.13-2.48-.88-2.55-2.5,0-.51,0-1,0-1.54q0-24.48,0-48.95a28.53,28.53,0,0,1,8.26-20.5,27,27,0,0,1,15.85-7.62c8.36-1.22,16.19.2,23.22,5.17,5.92,4.18,9,10.07,10.52,17a16,16,0,0,1,.42,3.44q0,26.23,0,52.48c0,2.81-.21,3-3,3h-3.09c-2.68,0-3.52-.82-3.53-3.5q0-9.93,0-19.85Zm.39-9.39c-.41-7.69-.55-15.29-1.33-22.83a14.47,14.47,0,0,0-7.58-11.23c-5.71-3.22-11.89-3.27-18.08-1.65A15,15,0,0,0,327.39,45c-1.9,7.81-1.32,15.85-1.12,23.81,0,.12.16.22.31.41Z"/><path class="cls-3" d="M276.74,86.71C278.9,81,281,75.39,283.09,69.82Q289.68,52.44,296.28,35c1-2.58,1.9-5.18,2.82-7.78.63-1.79,1.7-2.81,3.75-2.63,1.46.12,2.94,0,4.41,0a2.28,2.28,0,0,1,2.13,3.24c-3.77,9.82-7.59,19.61-11.34,29.44-3.88,10.17-7.67,20.38-11.52,30.56-2,5.22-4,10.39-6,15.63-.87,2.41-2.71,2.24-4.65,2.26s-2.66-1.11-3.2-2.52c-2.57-6.72-5.06-13.46-7.6-20.19q-5.33-14.15-10.7-28.29-5.14-13.54-10.33-27.09a2.16,2.16,0,0,1,1.82-3,34.64,34.64,0,0,1,5.94.06,2.92,2.92,0,0,1,2,1.59c3.92,10.22,7.74,20.48,11.57,30.74q5.4,14.48,10.79,29A4.11,4.11,0,0,0,276.74,86.71Z"/><path class="cls-3" d="M140.17,83.79c.43,6-1.84,11.06-5.68,15.34a21.52,21.52,0,0,1-13,6.61c-9.56,1.54-18.35-.95-26.65-5.54-2.16-1.2-2.37-2.4-1.07-4.63,0-.06,0-.14.09-.2,2.71-4.76,2.75-4.83,7.7-2.23,6.83,3.59,13.92,4.62,21.34,2.29a11.43,11.43,0,0,0,7.71-10.35c.45-7-3.07-11.46-8.83-14.53-4.69-2.5-9.62-4.58-14.21-7.23C98,57.8,93.35,51.07,95,39.49c1.07-7.74,9-14,16.55-15.72s14.42-.22,21.29,2.52c4.68,1.87,4.92,5.41.64,9.07a2.21,2.21,0,0,1-2.91.26,23.23,23.23,0,0,0-20.67-1.46c-6.46,2.52-7.94,11.67-3,16.88,3.47,3.68,8.07,5.47,12.39,7.72,5.88,3.07,11.94,5.89,16.37,11.09A18.94,18.94,0,0,1,140.17,83.79Z"/><path class="cls-3" d="M24.17,95.34H53.62c4.3,0,6.73,4,4.56,7.75a3.39,3.39,0,0,1-2.48,1.41c-13,.09-26,0-39,.07-2.15,0-2.18-1.41-2.18-3q0-35.82,0-71.66c0-5-.55-5.25,5.29-5.3,3.49,0,4.42.48,4.4,4.39-.09,21.16,0,42.33,0,63.5Z"/><path class="cls-3" d="M81.54,64.58v36.16c0,3.14-.69,3.82-3.85,3.82H75.05c-2.79,0-3.58-.8-3.58-3.68V28.57c0-3.29.67-3.9,4-3.92,5.63,0,6.14-.69,6.09,6.21C81.48,42.1,81.54,53.34,81.54,64.58Z"/><path class="cls-3" d="M174.74,144.2c-.5-11.15,9.66-20.35,20.39-20.43,11.29-.09,21.15,9.92,20.68,21a21,21,0,0,1-20.69,19.94C184.85,164.84,174,155,174.74,144.2Zm37.28-.06a16.51,16.51,0,0,0-16.64-16.89,17,17,0,0,0-.74,33.94C203.9,161.5,212.73,153.14,212,144.14Z"/><path class="cls-3" d="M252.13,154.18c2.14-5.62,4.16-10.89,6.17-16.16,1-2.64,1.94-5.3,3-7.91.8-2,1.17-2.09,3.73-1.14-.89,2.39-1.79,4.8-2.7,7.2-2.82,7.46-5.63,14.92-8.52,22.35a8.86,8.86,0,0,1-1.71,2.11,9.47,9.47,0,0,1-1.64-2c-2.16-5.32-4.23-10.67-6.43-16.26-2.68,6.31-4.69,12.72-8.07,18.48l-.86,0c-.92-2.06-1.93-4.09-2.75-6.2q-4.72-12.18-9.3-24.4c-.18-.47.15-1.12.24-1.69.89.22,2.19.16,2.57.72a21.23,21.23,0,0,1,1.92,4.38c2.55,6.72,5.09,13.44,7.79,20.59,1-2.35,2-4.36,2.82-6.41q3.76-9.18,7.47-18.38c.78-1.92,2.07-.76,3.61-.9a57.12,57.12,0,0,1-2.31,5.79c-1.48,2.79-1,5.44.14,8.12C248.85,146.28,250.43,150.09,252.13,154.18Z"/><path class="cls-3" d="M143.49,128.69v14h16.88c0-4,.08-7.9,0-11.78-.06-2.07.58-2.92,2.81-2.26a7,7,0,0,1,.18,1.18c.08,9.61.17,19.21.15,28.82,0,.53-.93,1.06-1.44,1.59-.55-.64-1.55-1.26-1.58-1.92-.17-3.37-.08-6.75-.08-10.13V146H143.52c0,4-.15,8,.09,12,.08,1.42-.37,2-1.46,2.08-1.29.09-1.62-.87-1.62-2.07,0-6.53,0-13.07,0-19.61,0-2.5,0-5,0-7.49C140.56,128.26,140.65,128.19,143.49,128.69Z"/><path class="cls-3" d="M124.17,130.07c-.61,1.86-1.4,2-3.28,1.58a19.28,19.28,0,0,0-7.22.06c-1.84.27-2.67,1.86-2.78,3.73a5.15,5.15,0,0,0,2.93,5c2.75,1.62,5.57,3.12,8.31,4.76,3.64,2.19,3.63,5.75,2.88,9.76-.6,3.15-4.26,5.58-7.67,5.77a14.74,14.74,0,0,1-8.57-2.07c-.57-.34-.78-1.27-1.16-1.93.8-.21,1.77-.82,2.37-.57a14.81,14.81,0,0,0,7.8,1.16c2.29-.27,3.88-1.2,4.42-3.5.69-2.93-.2-5.5-2.36-6.72s-4.63-2.47-7-3.66a8.65,8.65,0,0,1-4.73-9.4c.62-3.23,4.57-6.24,8.31-6C119.23,128.09,121.94,128.07,124.17,130.07Z"/></g></g></g></svg>