<svg id="Layer_1" data-name="Layer 1" xmlns="http://www.w3.org/2000/svg" viewBox="0 0 60 60"><defs><style>.cls-1{fill:#fff;}</style></defs><path class="cls-1" d="M59.44,4.9A2.06,2.06,0,0,0,56.92,4c-2.18.82-4.34,1.68-6.5,2.53L41.61,10,31.53,13.89l-9.8,3.82-8.65,3.36c-2.8,1.1-5.6,2.17-8.39,3.3-1.44.61-3.08.88-4.23,2.11v2.19c.4.21.59.63,1,.83L15.7,36.62A2.1,2.1,0,0,0,18,36.46c.78-.53,1.63-.94,2.45-1.42,2-1.19,4-2.39,6.09-3.54a5.82,5.82,0,0,1,1.6-.79c-.91.82-1.68,1.52-2.47,2.21S24,34.34,23.19,35.09s-1.39,1.19-1.38,2.23c0,5.5,0,11,0,16.5a2.35,2.35,0,0,0,1.4,2.11,1.91,1.91,0,0,0,2.52-.81c1.67-2.2,3.31-4.43,5-6.65.32-.43.58-1,1-1.2s.92.43,1.41.6a.93.93,0,0,1,.2.1l7.1,4.08c2.07,1.19,4.18,2.32,6.21,3.59A2.24,2.24,0,0,0,50.2,54.1c.33-1.6.67-3.2,1-4.8.45-2.17.88-4.35,1.32-6.51s.87-4.39,1.31-6.57.9-4.46,1.34-6.68S56,25.15,56.47,23c.48-2.41,1-4.82,1.46-7.23.43-2.17.83-4.35,1.34-6.51a18.18,18.18,0,0,0,.27-4A.63.63,0,0,0,59.44,4.9Zm-5.17,7.17c-.4,2-.81,4-1.21,6-.43,2.17-.88,4.35-1.32,6.51s-.89,4.46-1.34,6.69-.87,4.39-1.31,6.57l-1.34,6.63q-.59,2.92-1.16,5.87c-.07.41-.28.19-.44.11-.86-.47-1.71-1-2.55-1.45-1.59-.91-3.18-1.81-4.75-2.72-2.11-1.2-4.22-2.38-6.32-3.63a2.23,2.23,0,0,0-3.22.69c-.95,1.32-1.93,2.61-2.88,3.92a2,2,0,0,0-.18.36l-.18-.13V46.39c0-2.61,0-5.24,0-7.85a1,1,0,0,1,.48-.89c.78-.63,1.52-1.32,2.28-2l4.91-4.33c1.18-1,2.34-2.13,3.53-3.18,1.51-1.33,3-2.64,4.55-4,1.17-1,2.31-2.1,3.48-3.13.5-.46,1-.91,1.56-1.33a2.11,2.11,0,0,0,.82-2.4,2.17,2.17,0,0,0-2.45-1.44,7.77,7.77,0,0,0-1.88,1L38,20l-5.37,3.12-5.36,3.11c-2,1.16-4,2.32-5.95,3.47l-4.43,2.59a.35.35,0,0,1-.38,0L7.54,27.81C23.34,21.65,39,15.52,54.8,9.38,54.62,10.34,54.45,11.2,54.27,12.07Z"/></svg>