<svg id="Layer_1" data-name="Layer 1" xmlns="http://www.w3.org/2000/svg" viewBox="0 0 60 60"><defs><style>.cls-1{fill:#fff;}</style></defs><path class="cls-1" d="M59.39,42.73a20.5,20.5,0,0,0-2.18-3.43c-1-1.35-2.15-2.67-3.31-3.92s-2.39-2.59-3.62-3.86a.55.55,0,0,1-.05-.87c.6-.82,1.17-1.66,1.74-2.52,1.29-1.91,2.56-3.83,3.68-5.84a26.7,26.7,0,0,0,2.94-6.23,3.73,3.73,0,0,0,0-2.55,4,4,0,0,0-3.8-2.35,60.63,60.63,0,0,0-6.87.09,4.62,4.62,0,0,0-3.23,1.9,13.38,13.38,0,0,0-1.36,2.73,54.33,54.33,0,0,1-5.12,8.87c-.38.54-.85,1-1.36,1.65,0-3.6,0-7,0-10.48a8.17,8.17,0,0,0-.25-2.08,3.64,3.64,0,0,0-3-2.61,31.66,31.66,0,0,0-3.23-.07,73.16,73.16,0,0,0-7.55.13,3.58,3.58,0,0,0-2.9,2.38,3.1,3.1,0,0,0,.58,3.22,7.22,7.22,0,0,1,1.62,5.25c-.09,1.72-.19,3.44-.15,5.18a7.55,7.55,0,0,1,.1,1.47A40.56,40.56,0,0,1,18.53,23a75.13,75.13,0,0,1-3.6-8.48,4.83,4.83,0,0,0-4.81-3.41H4.39a8.29,8.29,0,0,0-1.4.2,4.28,4.28,0,0,0-2.63,2V17.4a.24.24,0,0,1,.09.06,49.38,49.38,0,0,0,3.48,9.12A62.37,62.37,0,0,0,8.68,34.7a45.58,45.58,0,0,0,3.92,4.93,33.66,33.66,0,0,0,7,6,20.61,20.61,0,0,0,4.92,2.3,17.7,17.7,0,0,0,6.94.86,11.92,11.92,0,0,0,2.61-.49,4,4,0,0,0,2.74-3.79,31.56,31.56,0,0,1,0-4,13.76,13.76,0,0,0,0-1.44,1.07,1.07,0,0,1,.66.26,20.65,20.65,0,0,1,2.92,2.34c1.75,1.63,3.21,3.52,4.87,5.21a6.19,6.19,0,0,0,4.82,2c1.72,0,3.44,0,5.16,0a6.9,6.9,0,0,0,2.11-.34,3.25,3.25,0,0,0,2.25-3.12c0-.57,0-1.13,0-1.68A1.94,1.94,0,0,0,59.39,42.73ZM49.23,44.46a1.41,1.41,0,0,1-.94-.48c-.91-.91-1.72-1.91-2.6-2.83-1.2-1.25-2.41-2.51-3.71-3.64A15,15,0,0,0,38.4,35a4.73,4.73,0,0,0-3.53-.29,3.72,3.72,0,0,0-2.23,2.79,60.12,60.12,0,0,0-.07,6.15c0,.62-.26.76-.74.79a16.73,16.73,0,0,1-10.1-2.53,25.94,25.94,0,0,1-5.27-4.24,39.61,39.61,0,0,1-4.24-5.27A61.2,61.2,0,0,1,8.41,26a62,62,0,0,1-3.15-7.25,13.92,13.92,0,0,1-.82-3.2H9.53c1.26,0,1.26,0,1.67,1.18a59.87,59.87,0,0,0,2.57,6.22,47.45,47.45,0,0,0,3.7,6.55,16.58,16.58,0,0,0,3.75,4.08c2.25,1.63,4.55.27,5.07-2A6.67,6.67,0,0,0,26.4,30c0-2.72,0-5.44,0-8.17a9.78,9.78,0,0,0-1.63-6.17c.13-.15.27-.1.38-.1,2.28,0,4.56,0,6.84,0,.45,0,.54.11.54.53,0,4,0,8,0,12a3.68,3.68,0,0,0,1.63,3.2,2.75,2.75,0,0,0,2.76.06,7.21,7.21,0,0,0,2.15-1.45,30.09,30.09,0,0,0,5.56-7.42,55.41,55.41,0,0,0,3.27-6.54.53.53,0,0,1,.59-.37c1.78,0,3.55,0,5.32,0,.37,0,.5,0,.31.45a53.44,53.44,0,0,1-3.86,7c-1.26,2-2.61,3.93-3.9,5.9s-1,3.43.62,5.24c1,1.14,2.16,2.18,3.18,3.33A47.94,47.94,0,0,1,54.75,43c.28.43.47.91.78,1.46C53.34,44.48,51.29,44.49,49.23,44.46Z"/></svg>