<svg id="Layer_1" data-name="Layer 1" xmlns="http://www.w3.org/2000/svg" viewBox="0 0 60 60"><defs><style>.cls-1{fill:#fff;}</style></defs><path class="cls-1" d="M46.86,36.77a2.63,2.63,0,0,0-1-1.85,13.84,13.84,0,0,0-2-1.24A52,52,0,0,0,39,31.53a3,3,0,0,0-3.25.37,13.77,13.77,0,0,0-2.28,2.54c-.21.31-.35.25-.57.13l-1.55-.83a14.87,14.87,0,0,1-5.92-5.34c-.28-.43-.34-.8.1-1.17a4.35,4.35,0,0,0,.75-.85c.9-1.26,1.4-2.57.63-4.12s-1.45-3.33-2.1-5a4.07,4.07,0,0,0-2.31-2.51A6.88,6.88,0,0,0,20,14.36a9,9,0,0,0-1,.05,6.46,6.46,0,0,0-3.38,2.21,10.17,10.17,0,0,0-2.47,7.88,14.91,14.91,0,0,0,2.52,6.61A31.69,31.69,0,0,0,21,37.36,36.19,36.19,0,0,0,25.44,41c3.43,2.28,7,4.16,11.25,4.57a10.58,10.58,0,0,0,4-.36,8.75,8.75,0,0,0,4.52-3.13A7.1,7.1,0,0,0,46.86,36.77Zm-4.43,1.78a3.71,3.71,0,0,1-3,2.62,9.14,9.14,0,0,1-4.61-.28,26.26,26.26,0,0,1-8.23-4.19,26.39,26.39,0,0,1-3.42-2.89A24.47,24.47,0,0,1,19.32,29a14.66,14.66,0,0,1-1.58-3.47,6.32,6.32,0,0,1-.37-1.93,7.23,7.23,0,0,1,1.5-4.46,1.67,1.67,0,0,1,1.7-.51.83.83,0,0,1,.48.64,22.93,22.93,0,0,0,1.8,4.16.56.56,0,0,1-.11.69c-.42.45-.81.94-1.2,1.42a3.17,3.17,0,0,0-.18,4.33,24.65,24.65,0,0,0,4.08,4.85,20.27,20.27,0,0,0,3.83,2.68c.85.47,1.73.91,2.6,1.35a2.91,2.91,0,0,0,3.75-.59,12.41,12.41,0,0,0,1.71-2.05.71.71,0,0,1,1-.28c1.2.58,2.42,1.12,3.64,1.65C42.53,37.74,42.56,38.07,42.43,38.55Z"/><path class="cls-1" d="M59.26,23.43a23.94,23.94,0,0,0-2.2-6.68,29,29,0,0,0-6.27-8.56,30.77,30.77,0,0,0-7-5A20.59,20.59,0,0,0,35.63.53h-9.9C24.85.7,24,.67,23.07.91a31.15,31.15,0,0,0-8.58,3.82,33.87,33.87,0,0,0-8,7.28A28.87,28.87,0,0,0,1.08,22.28,22.14,22.14,0,0,0,.5,26.17v7c.09.12,0,.27.06.38A19.36,19.36,0,0,0,.88,36.3a26,26,0,0,0,2.47,6.47,2.69,2.69,0,0,1,.18,2.08c-1,3.88-2.36,7.7-3,11.68v2c.32.89.44,1,1.43,1H4A9.2,9.2,0,0,0,6,59.21c3.12-.8,6.25-1.59,9.34-2.45a3.89,3.89,0,0,1,2.86.28,24,24,0,0,0,7.83,2.17,50.3,50.3,0,0,0,6.26.19,21,21,0,0,0,3.26-.27,28.57,28.57,0,0,0,8.29-2.84A29.81,29.81,0,0,0,53,48.71a28.58,28.58,0,0,0,4.48-7.46,22.35,22.35,0,0,0,1.83-6.55c.06-.55,0-1.1.15-1.65V25.57C59.35,24.89,59.38,24.16,59.26,23.43Zm-6,16.88a27.17,27.17,0,0,1-4.45,6.82,23.51,23.51,0,0,1-6.08,4.75,23.78,23.78,0,0,1-8.32,2.82,22.31,22.31,0,0,1-4.07.3,26.85,26.85,0,0,1-11.21-2.51c-.37-.19-.75-.34-1.13-.51a3.12,3.12,0,0,0-2.29,0c-2.74.73-5.48,1.43-8.21,2.15-.53.14-1,.31-1.56.43-.25.07-.45.07-.33-.34,1-3.47,1.91-7,2.88-10.44a1.79,1.79,0,0,0-.31-1.44A26,26,0,0,1,5,33.82a20.19,20.19,0,0,1-.36-5.26A25,25,0,0,1,6.8,19.87a27.4,27.4,0,0,1,4.26-6.53,26.08,26.08,0,0,1,6.43-5.23A26.39,26.39,0,0,1,24.7,5.16a23.09,23.09,0,0,1,4.24-.64,18.93,18.93,0,0,1,2-.09,26.57,26.57,0,0,1,6.84,1.11,26.12,26.12,0,0,1,6.9,3.36,19.51,19.51,0,0,1,3.13,2.5,30.28,30.28,0,0,1,3,3.73,27.49,27.49,0,0,1,3.81,7.74,24.54,24.54,0,0,1,.93,4.8c0,.64.08,1.28.1,1.93A26,26,0,0,1,53.26,40.31Z"/><path class="cls-1" d="M46.86,36.77a2.63,2.63,0,0,0-1-1.85,13.84,13.84,0,0,0-2-1.24A52,52,0,0,0,39,31.53a3,3,0,0,0-3.25.37,13.77,13.77,0,0,0-2.28,2.54c-.21.31-.35.25-.57.13l-1.55-.83a14.87,14.87,0,0,1-5.92-5.34c-.28-.43-.34-.8.1-1.17a4.35,4.35,0,0,0,.75-.85c.9-1.26,1.4-2.57.63-4.12s-1.45-3.33-2.1-5a4.07,4.07,0,0,0-2.31-2.51A6.88,6.88,0,0,0,20,14.36a9,9,0,0,0-1,.05,6.46,6.46,0,0,0-3.38,2.21,10.17,10.17,0,0,0-2.47,7.88,14.91,14.91,0,0,0,2.52,6.61A31.69,31.69,0,0,0,21,37.36,36.19,36.19,0,0,0,25.44,41c3.43,2.28,7,4.16,11.25,4.57a10.58,10.58,0,0,0,4-.36,8.75,8.75,0,0,0,4.52-3.13A7.1,7.1,0,0,0,46.86,36.77Zm-4.43,1.78a3.71,3.71,0,0,1-3,2.62,9.14,9.14,0,0,1-4.61-.28,26.26,26.26,0,0,1-8.23-4.19,26.39,26.39,0,0,1-3.42-2.89A24.47,24.47,0,0,1,19.32,29a14.66,14.66,0,0,1-1.58-3.47,6.32,6.32,0,0,1-.37-1.93,7.23,7.23,0,0,1,1.5-4.46,1.67,1.67,0,0,1,1.7-.51.83.83,0,0,1,.48.64,22.93,22.93,0,0,0,1.8,4.16.56.56,0,0,1-.11.69c-.42.45-.81.94-1.2,1.42a3.17,3.17,0,0,0-.18,4.33,24.65,24.65,0,0,0,4.08,4.85,20.27,20.27,0,0,0,3.83,2.68c.85.47,1.73.91,2.6,1.35a2.91,2.91,0,0,0,3.75-.59,12.41,12.41,0,0,0,1.71-2.05.71.71,0,0,1,1-.28c1.2.58,2.42,1.12,3.64,1.65C42.53,37.74,42.56,38.07,42.43,38.55Z"/><path class="cls-1" d="M46.86,36.77a2.63,2.63,0,0,0-1-1.85,13.84,13.84,0,0,0-2-1.24A52,52,0,0,0,39,31.53a3,3,0,0,0-3.25.37,13.77,13.77,0,0,0-2.28,2.54c-.21.31-.35.25-.57.13l-1.55-.83a14.87,14.87,0,0,1-5.92-5.34c-.28-.43-.34-.8.1-1.17a4.35,4.35,0,0,0,.75-.85c.9-1.26,1.4-2.57.63-4.12s-1.45-3.33-2.1-5a4.07,4.07,0,0,0-2.31-2.51A6.88,6.88,0,0,0,20,14.36a9,9,0,0,0-1,.05,6.46,6.46,0,0,0-3.38,2.21,10.17,10.17,0,0,0-2.47,7.88,14.91,14.91,0,0,0,2.52,6.61A31.69,31.69,0,0,0,21,37.36,36.19,36.19,0,0,0,25.44,41c3.43,2.28,7,4.16,11.25,4.57a10.58,10.58,0,0,0,4-.36,8.75,8.75,0,0,0,4.52-3.13A7.1,7.1,0,0,0,46.86,36.77Zm-4.43,1.78a3.71,3.71,0,0,1-3,2.62,9.14,9.14,0,0,1-4.61-.28,26.26,26.26,0,0,1-8.23-4.19,26.39,26.39,0,0,1-3.42-2.89A24.47,24.47,0,0,1,19.32,29a14.66,14.66,0,0,1-1.58-3.47,6.32,6.32,0,0,1-.37-1.93,7.23,7.23,0,0,1,1.5-4.46,1.67,1.67,0,0,1,1.7-.51.83.83,0,0,1,.48.64,22.93,22.93,0,0,0,1.8,4.16.56.56,0,0,1-.11.69c-.42.45-.81.94-1.2,1.42a3.17,3.17,0,0,0-.18,4.33,24.65,24.65,0,0,0,4.08,4.85,20.27,20.27,0,0,0,3.83,2.68c.85.47,1.73.91,2.6,1.35a2.91,2.91,0,0,0,3.75-.59,12.41,12.41,0,0,0,1.71-2.05.71.71,0,0,1,1-.28c1.2.58,2.42,1.12,3.64,1.65C42.53,37.74,42.56,38.07,42.43,38.55Z"/></svg>